<svg xmlns="http://www.w3.org/2000/svg" xmlns:xlink="http://www.w3.org/1999/xlink" width="500" zoomAndPan="magnify" viewBox="0 0 375 187.499995" height="250" preserveAspectRatio="xMidYMid meet" version="1.0"><defs><g/><clipPath id="79b08b7015"><path d="M 22.785156 38.429688 L 126.453125 38.429688 L 126.453125 142.101562 L 22.785156 142.101562 Z M 22.785156 38.429688 " clip-rule="nonzero"/></clipPath><clipPath id="bbc704fdea"><path d="M 52.703125 38.429688 L 96.535156 38.429688 C 104.46875 38.429688 112.078125 41.582031 117.691406 47.195312 C 123.300781 52.804688 126.453125 60.414062 126.453125 68.351562 L 126.453125 112.179688 C 126.453125 120.117188 123.300781 127.726562 117.691406 133.339844 C 112.078125 138.949219 104.46875 142.101562 96.535156 142.101562 L 52.703125 142.101562 C 44.769531 142.101562 37.160156 138.949219 31.546875 133.339844 C 25.9375 127.726562 22.785156 120.117188 22.785156 112.179688 L 22.785156 68.351562 C 22.785156 60.414062 25.9375 52.804688 31.546875 47.195312 C 37.160156 41.582031 44.769531 38.429688 52.703125 38.429688 Z M 52.703125 38.429688 " clip-rule="nonzero"/></clipPath><clipPath id="9fec1c53ba"><path d="M 30.21875 57.042969 L 51 57.042969 L 51 123.613281 L 30.21875 123.613281 Z M 30.21875 57.042969 " clip-rule="nonzero"/></clipPath><clipPath id="03397ab628"><path d="M 99 57.042969 L 119.257812 57.042969 L 119.257812 123.613281 L 99 123.613281 Z M 99 57.042969 " clip-rule="nonzero"/></clipPath></defs><g clip-path="url(#79b08b7015)"><g clip-path="url(#bbc704fdea)"><path fill="#1649ff" d="M 22.785156 38.429688 L 126.453125 38.429688 L 126.453125 142.101562 L 22.785156 142.101562 Z M 22.785156 38.429688 " fill-opacity="1" fill-rule="nonzero"/></g></g><g clip-path="url(#9fec1c53ba)"><path fill="#efefef" d="M 48.691406 64.425781 L 50.535156 64.425781 L 50.535156 57.042969 L 48.691406 57.042969 C 42.574219 57.042969 37.617188 62 37.617188 68.117188 L 37.617188 81.035156 C 37.617188 82.199219 37.070312 83.292969 36.140625 83.988281 L 31.710938 87.3125 C 30.824219 87.976562 30.28125 89.003906 30.238281 90.109375 C 30.191406 91.21875 30.644531 92.289062 31.472656 93.023438 L 36.378906 97.382812 C 37.164062 98.082031 37.617188 99.085938 37.617188 100.140625 L 37.617188 112.414062 C 37.617188 118.527344 42.574219 123.484375 48.691406 123.484375 L 50.535156 123.484375 L 50.535156 116.105469 L 48.691406 116.105469 C 46.652344 116.105469 45 114.449219 45 112.414062 L 45 100.140625 C 45 96.976562 43.644531 93.964844 41.28125 91.863281 L 39.753906 90.507812 L 40.570312 89.894531 C 43.359375 87.804688 45 84.523438 45 81.035156 L 45 68.117188 C 45 66.078125 46.652344 64.425781 48.691406 64.425781 Z M 48.691406 64.425781 " fill-opacity="1" fill-rule="evenodd"/></g><g clip-path="url(#03397ab628)"><path fill="#efefef" d="M 100.882812 64.425781 L 99.035156 64.425781 L 99.035156 57.042969 L 100.882812 57.042969 C 107 57.042969 111.957031 62 111.957031 68.117188 L 111.957031 81.035156 C 111.957031 82.199219 112.503906 83.292969 113.433594 83.988281 L 117.863281 87.3125 C 118.75 87.976562 119.289062 89.003906 119.335938 90.109375 C 119.382812 91.21875 118.929688 92.289062 118.101562 93.023438 L 113.195312 97.382812 C 112.40625 98.082031 111.957031 99.085938 111.957031 100.140625 L 111.957031 112.414062 C 111.957031 118.527344 107 123.484375 100.882812 123.484375 L 99.035156 123.484375 L 99.035156 116.105469 L 100.882812 116.105469 C 102.921875 116.105469 104.574219 114.449219 104.574219 112.414062 L 104.574219 100.140625 C 104.574219 96.976562 105.925781 93.964844 108.292969 91.863281 L 109.820312 90.507812 L 109.003906 89.894531 C 106.214844 87.804688 104.574219 84.523438 104.574219 81.035156 L 104.574219 68.117188 C 104.574219 66.078125 102.921875 64.425781 100.882812 64.425781 Z M 100.882812 64.425781 " fill-opacity="1" fill-rule="evenodd"/></g><g fill="#292929" fill-opacity="1"><g transform="translate(139.398081, 103.993382)"><g><path d="M 21.234375 -19.84375 C 21.234375 -17.0625 20.242188 -14.953125 18.265625 -13.515625 C 16.296875 -12.085938 13.882812 -11.375 11.03125 -11.375 L 7.859375 -11.375 L 7.859375 0 L 2.546875 0 L 2.546875 -25.953125 C 2.546875 -26.003906 2.457031 -26.382812 2.28125 -27.09375 C 2.101562 -27.8125 2 -28.21875 1.96875 -28.3125 L 10.953125 -28.3125 C 14.046875 -28.3125 16.53125 -27.644531 18.40625 -26.3125 C 20.289062 -24.988281 21.234375 -22.832031 21.234375 -19.84375 Z M 15.59375 -19.84375 C 15.59375 -21.289062 15.21875 -22.425781 14.46875 -23.25 C 13.71875 -24.070312 12.625 -24.484375 11.1875 -24.484375 L 7.890625 -24.484375 L 7.890625 -15.125 L 11.140625 -15.125 C 12.535156 -15.125 13.625 -15.554688 14.40625 -16.421875 C 15.195312 -17.285156 15.59375 -18.425781 15.59375 -19.84375 Z M 15.59375 -19.84375 "/></g></g></g><g fill="#292929" fill-opacity="1"><g transform="translate(161.027382, 103.993382)"><g><path d="M 24.328125 0 L 18.609375 0 L 15.828125 -8.125 L 7.46875 -8.125 L 4.5625 0 L 0.078125 0 L 10.09375 -28.3125 L 14.3125 -28.3125 Z M 14.546875 -11.921875 C 13.304688 -15.710938 12.328125 -18.9375 11.609375 -21.59375 C 10.734375 -18.363281 9.789062 -15.140625 8.78125 -11.921875 Z M 14.546875 -11.921875 "/></g></g></g><g fill="#292929" fill-opacity="1"><g transform="translate(184.823491, 103.993382)"><g><path d="M 21.234375 -19.84375 C 21.234375 -17.0625 20.242188 -14.953125 18.265625 -13.515625 C 16.296875 -12.085938 13.882812 -11.375 11.03125 -11.375 L 7.859375 -11.375 L 7.859375 0 L 2.546875 0 L 2.546875 -25.953125 C 2.546875 -26.003906 2.457031 -26.382812 2.28125 -27.09375 C 2.101562 -27.8125 2 -28.21875 1.96875 -28.3125 L 10.953125 -28.3125 C 14.046875 -28.3125 16.53125 -27.644531 18.40625 -26.3125 C 20.289062 -24.988281 21.234375 -22.832031 21.234375 -19.84375 Z M 15.59375 -19.84375 C 15.59375 -21.289062 15.21875 -22.425781 14.46875 -23.25 C 13.71875 -24.070312 12.625 -24.484375 11.1875 -24.484375 L 7.890625 -24.484375 L 7.890625 -15.125 L 11.140625 -15.125 C 12.535156 -15.125 13.625 -15.554688 14.40625 -16.421875 C 15.195312 -17.285156 15.59375 -18.425781 15.59375 -19.84375 Z M 15.59375 -19.84375 "/></g></g></g><g fill="#292929" fill-opacity="1"><g transform="translate(206.452789, 103.993382)"><g><path d="M 7.890625 0 L 2.546875 0 L 2.546875 -25.953125 C 2.546875 -25.984375 2.5 -26.175781 2.40625 -26.53125 C 2.320312 -26.894531 2.234375 -27.269531 2.140625 -27.65625 C 2.054688 -28.039062 2.015625 -28.257812 2.015625 -28.3125 L 7.890625 -28.3125 Z M 7.890625 0 "/></g></g></g><g fill="#292929" fill-opacity="1"><g transform="translate(216.203349, 103.993382)"><g><path d="M 23.671875 -2.40625 C 22.046875 -1.394531 20.53125 -0.660156 19.125 -0.203125 C 17.71875 0.242188 16.113281 0.46875 14.3125 0.46875 C 9.957031 0.46875 6.613281 -0.894531 4.28125 -3.625 C 1.945312 -6.363281 0.78125 -9.941406 0.78125 -14.359375 C 0.78125 -18.554688 2.003906 -22.019531 4.453125 -24.75 C 6.898438 -27.488281 10.203125 -28.859375 14.359375 -28.859375 C 15.953125 -28.859375 17.625 -28.625 19.375 -28.15625 C 21.132812 -27.695312 22.515625 -27.015625 23.515625 -26.109375 L 20.734375 -22.5625 C 20.035156 -23.332031 19.101562 -23.945312 17.9375 -24.40625 C 16.78125 -24.875 15.648438 -25.109375 14.546875 -25.109375 C 12.640625 -25.109375 11.0625 -24.566406 9.8125 -23.484375 C 8.5625 -22.398438 7.703125 -21.097656 7.234375 -19.578125 C 6.765625 -18.054688 6.53125 -16.351562 6.53125 -14.46875 C 6.53125 -13.226562 6.691406 -11.96875 7.015625 -10.6875 C 7.335938 -9.414062 7.804688 -8.207031 8.421875 -7.0625 C 9.046875 -5.914062 9.898438 -4.976562 10.984375 -4.25 C 12.066406 -3.53125 13.28125 -3.171875 14.625 -3.171875 C 17.019531 -3.171875 19.222656 -4.140625 21.234375 -6.078125 Z M 23.671875 -2.40625 "/></g></g></g><g fill="#292929" fill-opacity="1"><g transform="translate(239.728615, 103.993382)"><g><path d="M 27.78125 -14.125 C 27.78125 -9.863281 26.550781 -6.375 24.09375 -3.65625 C 21.644531 -0.9375 18.320312 0.421875 14.125 0.421875 C 9.914062 0.421875 6.628906 -0.945312 4.265625 -3.6875 C 1.910156 -6.4375 0.734375 -9.941406 0.734375 -14.203125 C 0.734375 -18.484375 1.921875 -21.976562 4.296875 -24.6875 C 6.671875 -27.394531 9.957031 -28.75 14.15625 -28.75 C 18.46875 -28.75 21.816406 -27.398438 24.203125 -24.703125 C 26.585938 -22.003906 27.78125 -18.476562 27.78125 -14.125 Z M 22.046875 -13.96875 C 22.046875 -15.332031 21.914062 -16.625 21.65625 -17.84375 C 21.40625 -19.070312 20.992188 -20.25 20.421875 -21.375 C 19.859375 -22.5 19.039062 -23.394531 17.96875 -24.0625 C 16.894531 -24.726562 15.640625 -25.0625 14.203125 -25.0625 C 12.785156 -25.0625 11.546875 -24.742188 10.484375 -24.109375 C 9.421875 -23.484375 8.609375 -22.632812 8.046875 -21.5625 C 7.484375 -20.5 7.070312 -19.363281 6.8125 -18.15625 C 6.550781 -16.957031 6.421875 -15.691406 6.421875 -14.359375 C 6.421875 -12.984375 6.550781 -11.679688 6.8125 -10.453125 C 7.070312 -9.234375 7.484375 -8.0625 8.046875 -6.9375 C 8.609375 -5.820312 9.425781 -4.925781 10.5 -4.25 C 11.570312 -3.582031 12.832031 -3.25 14.28125 -3.25 C 15.695312 -3.25 16.929688 -3.5625 17.984375 -4.1875 C 19.046875 -4.820312 19.859375 -5.675781 20.421875 -6.75 C 20.992188 -7.820312 21.40625 -8.957031 21.65625 -10.15625 C 21.914062 -11.351562 22.046875 -12.625 22.046875 -13.96875 Z M 22.046875 -13.96875 "/></g></g></g><g fill="#292929" fill-opacity="1"><g transform="translate(267.626181, 103.993382)"><g><path d="M 26.3125 -14.125 C 26.3125 -9.789062 24.984375 -6.304688 22.328125 -3.671875 C 19.867188 -1.222656 16.644531 0 12.65625 0 L 2.59375 0 L 2.59375 -25.953125 C 2.59375 -25.984375 2.492188 -26.363281 2.296875 -27.09375 C 2.109375 -27.832031 2 -28.238281 1.96875 -28.3125 L 12.6875 -28.3125 C 16.945312 -28.3125 20.28125 -27.015625 22.6875 -24.421875 C 25.101562 -21.835938 26.3125 -18.40625 26.3125 -14.125 Z M 20.578125 -13.96875 C 20.578125 -15.820312 20.316406 -17.507812 19.796875 -19.03125 C 19.285156 -20.550781 18.390625 -21.835938 17.109375 -22.890625 C 15.835938 -23.953125 14.25 -24.484375 12.34375 -24.484375 L 7.9375 -24.484375 L 7.9375 -3.828125 L 12.421875 -3.828125 C 13.835938 -3.828125 15.085938 -4.101562 16.171875 -4.65625 C 17.253906 -5.21875 18.101562 -5.976562 18.71875 -6.9375 C 19.34375 -7.90625 19.804688 -8.976562 20.109375 -10.15625 C 20.421875 -11.332031 20.578125 -12.601562 20.578125 -13.96875 Z M 20.578125 -13.96875 "/></g></g></g><g fill="#292929" fill-opacity="1"><g transform="translate(294.053415, 103.993382)"><g><path d="M 7.890625 0 L 2.546875 0 L 2.546875 -25.953125 C 2.546875 -25.984375 2.5 -26.175781 2.40625 -26.53125 C 2.320312 -26.894531 2.234375 -27.269531 2.140625 -27.65625 C 2.054688 -28.039062 2.015625 -28.257812 2.015625 -28.3125 L 7.890625 -28.3125 Z M 7.890625 0 "/></g></g></g><g fill="#292929" fill-opacity="1"><g transform="translate(303.803975, 103.993382)"><g><path d="M 25.140625 0.1875 L 20.96875 0.1875 L 8.234375 -19.234375 C 7.359375 -20.597656 6.816406 -21.457031 6.609375 -21.8125 C 6.765625 -20.113281 6.84375 -19.253906 6.84375 -19.234375 L 6.84375 0 L 2.546875 0 L 2.546875 -25.921875 C 2.546875 -25.941406 2.5 -26.132812 2.40625 -26.5 C 2.320312 -26.863281 2.234375 -27.238281 2.140625 -27.625 C 2.054688 -28.007812 2.015625 -28.226562 2.015625 -28.28125 L 8.359375 -28.28125 L 19.5 -11.328125 C 19.882812 -10.765625 20.410156 -9.914062 21.078125 -8.78125 C 20.929688 -10.71875 20.859375 -11.710938 20.859375 -11.765625 L 20.859375 -28.28125 L 25.140625 -28.28125 Z M 25.140625 0.1875 "/></g></g></g><g fill="#292929" fill-opacity="1"><g transform="translate(330.81161, 103.993382)"><g><path d="M 25.84375 0.03125 L 23.09375 0.03125 L 21.78125 -2.90625 C 20.488281 -1.71875 19.195312 -0.863281 17.90625 -0.34375 C 16.625 0.164062 15.101562 0.421875 13.34375 0.421875 C 9.320312 0.421875 6.226562 -0.921875 4.0625 -3.609375 C 1.894531 -6.304688 0.8125 -9.734375 0.8125 -13.890625 C 0.8125 -18.398438 2.0625 -22.007812 4.5625 -24.71875 C 7.0625 -27.425781 10.53125 -28.78125 14.96875 -28.78125 C 16.726562 -28.78125 18.5625 -28.519531 20.46875 -28 C 22.375 -27.488281 23.859375 -26.734375 24.921875 -25.734375 L 22.09375 -22.5625 C 20.726562 -23.5625 19.585938 -24.238281 18.671875 -24.59375 C 17.753906 -24.957031 16.519531 -25.140625 14.96875 -25.140625 C 12.9375 -25.140625 11.253906 -24.601562 9.921875 -23.53125 C 8.597656 -22.46875 7.679688 -21.15625 7.171875 -19.59375 C 6.671875 -18.03125 6.421875 -16.242188 6.421875 -14.234375 C 6.421875 -12.972656 6.566406 -11.726562 6.859375 -10.5 C 7.160156 -9.28125 7.597656 -8.113281 8.171875 -7 C 8.753906 -5.894531 9.570312 -5 10.625 -4.3125 C 11.6875 -3.625 12.890625 -3.28125 14.234375 -3.28125 C 16.066406 -3.28125 17.539062 -3.820312 18.65625 -4.90625 C 19.78125 -5.988281 20.34375 -7.445312 20.34375 -9.28125 L 20.34375 -11.6875 L 14.46875 -11.6875 L 14.96875 -15.09375 L 25.734375 -15.09375 C 25.679688 -11.945312 25.65625 -9.570312 25.65625 -7.96875 C 25.65625 -4.84375 25.71875 -2.175781 25.84375 0.03125 Z M 25.84375 0.03125 "/></g></g></g><g fill="#ffffff" fill-opacity="1"><g transform="translate(56.378816, 112.602988)"><g><path d="M 36.234375 -33.859375 C 36.234375 -29.109375 34.550781 -25.507812 31.1875 -23.0625 C 27.820312 -20.625 23.695312 -19.40625 18.8125 -19.40625 L 13.390625 -19.40625 L 13.390625 0 L 4.359375 0 L 4.359375 -44.28125 C 4.359375 -44.375 4.203125 -45.023438 3.890625 -46.234375 C 3.585938 -47.441406 3.410156 -48.132812 3.359375 -48.3125 L 18.671875 -48.3125 C 23.953125 -48.3125 28.195312 -47.175781 31.40625 -44.90625 C 34.625 -42.644531 36.234375 -38.960938 36.234375 -33.859375 Z M 26.59375 -33.859375 C 26.59375 -36.316406 25.953125 -38.25 24.671875 -39.65625 C 23.398438 -41.070312 21.535156 -41.78125 19.078125 -41.78125 L 13.46875 -41.78125 L 13.46875 -25.8125 L 19.015625 -25.8125 C 21.390625 -25.8125 23.242188 -26.546875 24.578125 -28.015625 C 25.921875 -29.492188 26.59375 -31.441406 26.59375 -33.859375 Z M 26.59375 -33.859375 "/></g></g></g></svg>